<svg width="102" height="81" viewBox="0 0 102 81" fill="none" xmlns="http://www.w3.org/2000/svg">
<path d="M20.3882 74.0098H22.9796V64.9468H20.3882V74.0098Z" fill="#001E60"/>
<path d="M31.213 72.001V64.9468H28.6216V74.0098H34.4486V72.001H31.213Z" fill="#001E60"/>
<path d="M45.4767 66.9556V64.9468H39.177V74.0098H45.4767V72.001H41.7684V70.4753H44.9015V68.4814H41.7684V66.9556H45.4767Z" fill="#001E60"/>
<path d="M50.9673 71.5926H55.7088V70.1433H50.9673V71.5926Z" fill="#001E60"/>
<path d="M70.3957 64.9468L67.3818 70.7177L64.3846 64.9468H61.5715V74.0098H64.1629V69.1304L66.6874 74.0098H68.0762L70.5986 69.1622V74.0098H73.19V64.9468H70.3957Z" fill="#001E60"/>
<path d="M78.8496 74.0098H81.441V64.9468H78.8496V74.0098Z" fill="#001E60"/>
<mask id="mask0_407_1747" style="mask-type:luminance" maskUnits="userSpaceOnUse" x="65" y="0" width="37" height="58">
<path d="M65.1033 0H102V57.4355H65.1033V0Z" fill="white"/>
</mask>
<g mask="url(#mask0_407_1747)">
<path fill-rule="evenodd" clip-rule="evenodd" d="M84.6486 14.5487H87.4261V17.0257H84.6486V14.5487ZM84.6486 18.391H87.4261V20.868H84.6486V18.391ZM84.6486 22.2296H87.4261V24.7066H84.6486V22.2296ZM84.6486 26.0719H87.4261V28.5489H84.6486V26.0719ZM84.6486 29.9143H87.4261V32.3913H84.6486V29.9143ZM84.6486 33.7566H87.4261V36.2336H84.6486V33.7566ZM84.6486 10.7063H87.4261V13.1833H84.6486V10.7063ZM94.6775 11.3647L82.6156 6.55809V42.9689L93.6234 51.1572V19.2565L94.6775 19.9652V11.3647ZM87.7336 0C84.2909 0 80.8503 0 77.4098 0V13.4631L78.4618 12.8905V39.8801L81.5657 42.1874V5.11255L87.7357 7.57276V0H87.7336ZM75.2639 15.7349L77.4098 14.5654V39.0986L75.2639 37.5038V15.7349ZM67.0588 15.0467H69.4891V17.214H67.0588V15.0467ZM67.0588 18.4078H69.4891V20.5752H67.0588V18.4078ZM67.0588 21.7726H69.4891V23.94H67.0588V21.7726ZM67.0588 25.1356H69.4891V27.303H67.0588V25.1356ZM67.0588 28.4967H69.4891V30.6641H67.0588V28.4967ZM67.0588 11.6837H69.4891V13.8511H67.0588V11.6837ZM65.396 9.26637L74.2139 4.45972V36.7204L65.4002 30.1605V9.26637H65.396ZM101.803 25.9488L94.6775 21.1422V51.9387L101.803 57.2378V25.9488Z" fill="#5F259F"/>
</g>
<path fill-rule="evenodd" clip-rule="evenodd" d="M33.4143 34.072L47.3502 36.2842L63.8671 31.6528L47.0135 44.1889L33.4143 34.072Z" fill="#001E60"/>
<mask id="mask1_407_1747" style="mask-type:luminance" maskUnits="userSpaceOnUse" x="0" y="31" width="102" height="27">
<path d="M0 31.1733H101.513V57.6575H0V31.1733Z" fill="white"/>
</mask>
<g mask="url(#mask1_407_1747)">
<path fill-rule="evenodd" clip-rule="evenodd" d="M32.2055 33.8797L47.0178 44.8956L65.4003 31.2236L101.149 57.8141C97.3652 57.8141 93.5837 57.8141 89.798 57.8141V54.134L65.3961 35.9669L50.2053 47.2663L64.3817 57.8141C61.2381 57.8141 58.0966 57.8141 54.9531 57.8141V55.546L32.2014 38.6229L9.44964 55.546V57.8141C6.30606 57.8141 3.16457 57.8141 0.0209961 57.8141L32.2055 33.8797Z" fill="#5F259F"/>
</g>
<path fill-rule="evenodd" clip-rule="evenodd" d="M32.2054 39.6768L53.5369 55.546H51.2509L32.2054 41.3778L13.1536 55.546H10.8696L32.2054 39.6768Z" fill="#001E60"/>
<path fill-rule="evenodd" clip-rule="evenodd" d="M31.5696 57.4242H27.9534V54.203H31.5654V57.4242H31.5696ZM36.4513 54.203V57.4242H32.8392V54.203H36.4513ZM32.8392 49.8496H36.4513V53.069H32.8392V49.8496ZM27.9534 49.8496H31.5654V53.069H27.9534V49.8496Z" fill="#001E60"/>
<path fill-rule="evenodd" clip-rule="evenodd" d="M65.3961 37.0227L88.3695 54.1342H86.0834L65.3961 38.72L53.0623 47.8969L51.9182 47.0464L65.3961 37.0227Z" fill="#001E60"/>
<path fill-rule="evenodd" clip-rule="evenodd" d="M64.867 50.7132H62.3007V48.4264H64.867V50.7132ZM68.3327 48.4264V50.7132H65.7684V48.4264H68.3327ZM65.7684 45.332H68.3327V47.6188H65.7684V45.332ZM62.2986 45.332H64.8628V47.6188H62.2986V45.332Z" fill="#001E60"/>
<path d="M20.2285 80.303V77.2729H21.4802C21.7071 77.2729 21.9029 77.3138 22.0676 77.3957C22.2333 77.4766 22.361 77.5929 22.4508 77.7448C22.5406 77.8958 22.5854 78.0748 22.5854 78.2819C22.5854 78.492 22.5396 78.6706 22.4478 78.8175C22.3561 78.9635 22.2259 79.075 22.0572 79.1519C21.8886 79.2278 21.6888 79.2658 21.458 79.2658H20.6665V78.6888H21.3219C21.4324 78.6888 21.5246 78.6745 21.5986 78.6459C21.6735 78.6163 21.7303 78.5719 21.7687 78.5127C21.8072 78.4526 21.8264 78.3756 21.8264 78.2819C21.8264 78.1882 21.8072 78.1108 21.7687 78.0496C21.7303 77.9875 21.6735 77.9411 21.5986 77.9106C21.5236 77.879 21.4314 77.8632 21.3219 77.8632H20.9609V80.303H20.2285ZM21.9344 78.9181L22.689 80.303H21.89L21.1503 78.9181H21.9344Z" fill="#001E60"/>
<path d="M23.6538 80.303V77.2729H25.7665V77.8677H24.3861V78.4891H25.6585V79.0853H24.3861V79.7082H25.7665V80.303H23.6538Z" fill="#001E60"/>
<path d="M27.5473 80.303H26.7601L27.7825 77.2729H28.7575L29.7799 80.303H28.9928L28.2811 78.0363H28.2575L27.5473 80.303ZM27.4422 79.1105H29.0875V79.6668H27.4422V79.1105Z" fill="#001E60"/>
<path d="M30.7728 80.303V77.2729H31.5051V79.7082H32.7657V80.303H30.7728Z" fill="#001E60"/>
<path d="M35.3732 80.303V77.2729H37.486V77.8677H36.1056V78.4891H37.378V79.0853H36.1056V79.7082H37.486V80.303H35.3732Z" fill="#001E60"/>
<path d="M40.2492 78.1813C40.2393 78.0728 40.1954 77.9885 40.1175 77.9283C40.0405 77.8672 39.9306 77.8366 39.7875 77.8366C39.6928 77.8366 39.6139 77.8489 39.5508 77.8736C39.4877 77.8982 39.4403 77.9323 39.4088 77.9757C39.3772 78.0181 39.3609 78.0669 39.3599 78.1221C39.358 78.1675 39.3669 78.2075 39.3866 78.242C39.4073 78.2765 39.4369 78.3071 39.4754 78.3337C39.5148 78.3594 39.5622 78.382 39.6174 78.4018C39.6726 78.4215 39.7348 78.4388 39.8038 78.4536L40.0642 78.5127C40.2141 78.5453 40.3463 78.5887 40.4607 78.6429C40.5761 78.6972 40.6728 78.7618 40.7507 78.8368C40.8296 78.9117 40.8893 78.998 40.9297 79.0957C40.9702 79.1933 40.9909 79.3028 40.9919 79.4241C40.9909 79.6155 40.9426 79.7797 40.8469 79.9168C40.7512 80.0539 40.6136 80.159 40.4341 80.232C40.2556 80.305 40.04 80.3415 39.7875 80.3415C39.534 80.3415 39.3131 80.3035 39.1247 80.2275C38.9363 80.1516 38.7898 80.0362 38.6853 79.8813C38.5807 79.7265 38.527 79.5307 38.524 79.2939H39.2253C39.2312 79.3916 39.2574 79.473 39.3037 79.5381C39.3501 79.6032 39.4137 79.6525 39.4946 79.686C39.5765 79.7195 39.6711 79.7363 39.7787 79.7363C39.8773 79.7363 39.9611 79.723 40.0302 79.6964C40.1002 79.6697 40.154 79.6327 40.1915 79.5854C40.2289 79.5381 40.2482 79.4838 40.2492 79.4227C40.2482 79.3654 40.2304 79.3166 40.1959 79.2762C40.1614 79.2348 40.1081 79.1992 40.0361 79.1697C39.9651 79.1391 39.8743 79.111 39.7639 79.0853L39.4472 79.0113C39.1849 78.9512 38.9782 78.854 38.8273 78.7199C38.6764 78.5847 38.6014 78.4023 38.6024 78.1724C38.6014 77.985 38.6517 77.8208 38.7533 77.6797C38.8549 77.5387 38.9955 77.4287 39.175 77.3498C39.3545 77.2709 39.5592 77.2314 39.789 77.2314C40.0238 77.2314 40.2275 77.2714 40.4001 77.3513C40.5737 77.4302 40.7083 77.5412 40.804 77.6842C40.8997 77.8272 40.9485 77.9929 40.9505 78.1813H40.2492Z" fill="#001E60"/>
<path d="M41.9293 77.8677V77.2729H44.4904V77.8677H43.5716V80.303H42.8495V77.8677H41.9293Z" fill="#001E60"/>
<path d="M45.7917 80.303H45.0046L46.027 77.2729H47.002L48.0243 80.303H47.2372L46.5256 78.0363H46.5019L45.7917 80.303ZM45.6867 79.1105H47.3319V79.6668H45.6867V79.1105Z" fill="#001E60"/>
<path d="M48.5397 77.8677V77.2729H51.1008V77.8677H50.182V80.303H49.46V77.8677H48.5397Z" fill="#001E60"/>
<path d="M52.1251 80.303V77.2729H54.2379V77.8677H52.8575V78.4891H54.1299V79.0853H52.8575V79.7082H54.2379V80.303H52.1251Z" fill="#001E60"/>
<path d="M59.6754 78.3707H58.9356C58.9258 78.2947 58.9055 78.2262 58.875 78.165C58.8444 78.1039 58.8039 78.0516 58.7536 78.0082C58.7033 77.9648 58.6437 77.9318 58.5746 77.9091C58.5065 77.8854 58.4311 77.8736 58.3482 77.8736C58.2013 77.8736 58.0745 77.9096 57.968 77.9816C57.8625 78.0536 57.7811 78.1576 57.7239 78.2938C57.6676 78.4299 57.6395 78.5946 57.6395 78.7879C57.6395 78.9891 57.6681 79.1578 57.7253 79.2939C57.7835 79.4291 57.8649 79.5312 57.9695 79.6002C58.075 79.6683 58.1998 79.7023 58.3438 79.7023C58.4247 79.7023 58.4982 79.6919 58.5643 79.6712C58.6313 79.6505 58.69 79.6204 58.7403 79.581C58.7916 79.5405 58.8335 79.4917 58.8661 79.4345C58.8996 79.3763 58.9228 79.3107 58.9356 79.2377L59.6754 79.2421C59.6626 79.3763 59.6236 79.5085 59.5585 79.6387C59.4944 79.7689 59.4061 79.8877 59.2937 79.9952C59.1812 80.1018 59.0441 80.1866 58.8824 80.2497C58.7216 80.3128 58.5371 80.3444 58.329 80.3444C58.0548 80.3444 57.8092 80.2842 57.5922 80.1639C57.3762 80.0426 57.2055 79.866 57.0803 79.6342C56.955 79.4024 56.8924 79.1203 56.8924 78.7879C56.8924 78.4545 56.956 78.1719 57.0832 77.9401C57.2105 77.7084 57.3826 77.5323 57.5996 77.4119C57.8166 77.2916 58.0597 77.2314 58.329 77.2314C58.5125 77.2314 58.6821 77.2571 58.838 77.3084C58.9938 77.3587 59.1309 77.4327 59.2493 77.5303C59.3676 77.627 59.4638 77.7458 59.5378 77.8869C59.6118 78.0279 59.6576 78.1892 59.6754 78.3707Z" fill="#001E60"/>
<path d="M63.6211 78.7879C63.6211 79.1213 63.5569 79.4039 63.4287 79.6357C63.3005 79.8675 63.1269 80.0436 62.9079 80.1639C62.6899 80.2842 62.4453 80.3444 62.1741 80.3444C61.9018 80.3444 61.6567 80.2837 61.4387 80.1624C61.2207 80.0411 61.0476 79.865 60.9194 79.6342C60.7922 79.4024 60.7285 79.1203 60.7285 78.7879C60.7285 78.4545 60.7922 78.1719 60.9194 77.9401C61.0476 77.7084 61.2207 77.5323 61.4387 77.4119C61.6567 77.2916 61.9018 77.2314 62.1741 77.2314C62.4453 77.2314 62.6899 77.2916 62.9079 77.4119C63.1269 77.5323 63.3005 77.7084 63.4287 77.9401C63.5569 78.1719 63.6211 78.4545 63.6211 78.7879ZM62.8724 78.7879C62.8724 78.5907 62.8443 78.424 62.7881 78.2878C62.7328 78.1517 62.6529 78.0486 62.5484 77.9786C62.4448 77.9086 62.32 77.8736 62.1741 77.8736C62.0291 77.8736 61.9043 77.9086 61.7997 77.9786C61.6952 78.0486 61.6148 78.1517 61.5586 78.2878C61.5033 78.424 61.4757 78.5907 61.4757 78.7879C61.4757 78.9852 61.5033 79.1519 61.5586 79.288C61.6148 79.4241 61.6952 79.5272 61.7997 79.5972C61.9043 79.6673 62.0291 79.7023 62.1741 79.7023C62.32 79.7023 62.4448 79.6673 62.5484 79.5972C62.6529 79.5272 62.7328 79.4241 62.7881 79.288C62.8443 79.1519 62.8724 78.9852 62.8724 78.7879Z" fill="#001E60"/>
<path d="M67.2941 77.2729V80.303H66.6727L65.4669 78.5542H65.4476V80.303H64.7153V77.2729H65.3456L66.5381 79.0187H66.5632V77.2729H67.2941Z" fill="#001E60"/>
<path d="M71.0001 77.2729V80.303H70.3787L69.1729 78.5542H69.1536V80.303H68.4213V77.2729H69.0515L70.2441 79.0187H70.2692V77.2729H71.0001Z" fill="#001E60"/>
<path d="M72.1272 80.303V77.2729H74.24V77.8677H72.8596V78.4891H74.132V79.0853H72.8596V79.7082H74.24V80.303H72.1272Z" fill="#001E60"/>
<path d="M78.1158 78.3707H77.376C77.3662 78.2947 77.3459 78.2262 77.3153 78.165C77.2848 78.1039 77.2443 78.0516 77.194 78.0082C77.1437 77.9648 77.084 77.9318 77.015 77.9091C76.9469 77.8854 76.8715 77.8736 76.7886 77.8736C76.6417 77.8736 76.5149 77.9096 76.4084 77.9816C76.3028 78.0536 76.2215 78.1576 76.1643 78.2938C76.108 78.4299 76.0799 78.5946 76.0799 78.7879C76.0799 78.9891 76.1085 79.1578 76.1657 79.2939C76.2239 79.4291 76.3053 79.5312 76.4099 79.6002C76.5154 79.6683 76.6402 79.7023 76.7842 79.7023C76.8651 79.7023 76.9386 79.6919 77.0046 79.6712C77.0717 79.6505 77.1304 79.6204 77.1807 79.581C77.232 79.5405 77.2739 79.4917 77.3065 79.4345C77.34 79.3763 77.3632 79.3107 77.376 79.2377L78.1158 79.2421C78.103 79.3763 78.064 79.5085 77.9989 79.6387C77.9348 79.7689 77.8465 79.8877 77.7341 79.9952C77.6216 80.1018 77.4845 80.1866 77.3228 80.2497C77.162 80.3128 76.9775 80.3444 76.7694 80.3444C76.4952 80.3444 76.2496 80.2842 76.0326 80.1639C75.8166 80.0426 75.6459 79.866 75.5207 79.6342C75.3954 79.4024 75.3328 79.1203 75.3328 78.7879C75.3328 78.4545 75.3964 78.1719 75.5236 77.9401C75.6509 77.7084 75.823 77.5323 76.04 77.4119C76.257 77.2916 76.5001 77.2314 76.7694 77.2314C76.9529 77.2314 77.1225 77.2571 77.2784 77.3084C77.4342 77.3587 77.5713 77.4327 77.6897 77.5303C77.808 77.627 77.9042 77.7458 77.9782 77.8869C78.0522 78.0279 78.098 78.1892 78.1158 78.3707Z" fill="#001E60"/>
<path d="M79.1024 77.8677V77.2729H81.6635V77.8677H80.7447V80.303H80.0226V77.8677H79.1024Z" fill="#001E60"/>
</svg>
